<?xml version="1.0" encoding="utf-8"?>
<!-- Generator: Adobe Illustrator 26.0.1, SVG Export Plug-In . SVG Version: 6.00 Build 0)  -->
<svg version="1.1" id="Layer_1"
  xmlns="http://www.w3.org/2000/svg"
  xmlns:xlink="http://www.w3.org/1999/xlink" x="0px" y="0px" viewBox="0 0 4500 4500" style="enable-background:new 0 0 4500 4500;" xml:space="preserve">
  <style type="text/css">
	.st0{fill:#464747;}
	.st1{fill-rule:evenodd;clip-rule:evenodd;fill:#B6B5B6;}
	.st2{fill-rule:evenodd;clip-rule:evenodd;}
	.st3{fill-rule:evenodd;clip-rule:evenodd;fill:#FFFFFF;filter:url(#Adobe_OpacityMaskFilter);}
	.st4{mask:url(#path-10-inside-1_108_16_00000178887411693998826800000013167947780937157303_);}
	.st5{fill:none;}
	.st6{font-family:'JosefinSans-Bold';}
	.st7{font-size:650px;}
	.st8{font-family:'JosefinSans-SemiBold';}
	.st9{font-size:450px;}
  </style>
  <path d="M0,2315.9v-304c0,0,35.4,130.3,122.9,130.3c38.3,0,70.7-14.9,94.9-31.6c4.4-64.6,11.7-128.3,22-191.1
	C88.9,1820,59.7,1731.3,59.7,1731.3l78.6-293.7c0,0,0.5,135,85,157.7c36.7,9.8,71.7,4,99.3-5.8c21-61.1,44.6-120.9,71.1-179.3
	c-119.9-135-125.2-228.3-125.2-228.3l152-263.3c0,0-34.5,130.5,41.3,174.2c33.2,19.1,68.5,22.4,97.8,20
	c35.9-53.3,74.3-104.7,114.9-154.2c-81-161.8-62.1-253.3-62.1-253.3l215.1-215c0,0-67,117.2-5.2,179.1
	c27.1,27.1,60.5,39.4,89.5,44.8c48.3-42.1,98.5-82,150.6-119.4c-36.4-177.2,5.6-260.6,5.6-260.6l263.3-152c0,0-95.1,95.8-51.4,171.6
	c19.1,33,48,53.5,74.4,66.2c57.6-28.2,116.5-53.8,177-76.5c10.8-180.2,72.8-249.8,72.8-249.8l293.6-78.7c0,0-116.7,68-94,152.5
	c9.8,36.8,32.4,64.2,54.8,83.3c62.5-12.2,126.1-21.4,190.6-27.8C2106.2,51.4,2184.2,0.1,2184.2,0.1h303.9c0,0-130.3,35.4-130.3,123
	c0,38.3,14.9,70.7,31.6,94.9c64.6,4.4,128.3,11.7,191,22C2680,89,2768.7,59.8,2768.7,59.8l293.6,78.7c0,0-135,0.5-157.6,85.1
	c-9.8,36.7-4,71.7,5.8,99.3c61.1,21,120.9,44.7,179.3,71.1c135-119.9,228.2-125.2,228.2-125.2l263.3,152c0,0-130.5-34.5-174.2,41.3
	c-19.1,33.2-22.4,68.5-20,97.8c53.3,35.9,104.7,74.3,154.2,114.9c161.8-81,253.2-62.1,253.2-62.1l215,215c0,0-117.1-67-179.1-5.2
	c-27.1,27.1-39.4,60.5-44.8,89.6c42,48.3,82,98.6,119.4,150.7c177.2-36.4,260.6,5.6,260.6,5.6l152,263.3c0,0-95.8-95.1-171.6-51.4
	c-33,19.1-53.5,48-66.2,74.4c28.2,57.6,53.8,116.6,76.5,177c180.1,10.8,249.8,72.8,249.8,72.8l78.6,293.7c0,0-68-116.7-152.4-94.1
	c-36.8,9.8-64.2,32.5-83.3,54.8c12.2,62.5,21.4,126.2,27.8,190.6c172,56.9,223.2,134.9,223.2,134.9v303.9
	c0,0-35.4-130.3-122.9-130.3c-38.2,0-70.7,14.9-94.9,31.6c-4.4,64.6-11.7,128.3-22,191.1c150.9,99.5,180.1,188.2,180.1,188.2
	l-78.6,293.6c0,0-0.5-135-85-157.7c-36.7-9.8-71.7-4-99.2,5.8c-21,61.1-44.6,120.9-71.1,179.3c119.9,135,125.2,228.3,125.2,228.3
	l-151.9,263.3c0,0,34.5-130.5-41.3-174.2c-33.2-19.1-68.5-22.4-97.8-20c-35.9,53.3-74.3,104.7-114.9,154.2
	c81,161.8,62.1,253.3,62.1,253.3l-215,215c0,0,67-117.1,5.2-179.1c-27.1-27.1-60.5-39.5-89.5-44.8c-48.3,42-98.5,82-150.6,119.4
	c36.4,177.2-5.6,260.6-5.6,260.6l-263.3,152c0,0,95.1-95.8,51.4-171.6c-19.1-33-48-53.5-74.4-66.2c-57.6,28.2-116.6,53.8-176.9,76.5
	c-10.8,180.2-72.8,249.8-72.8,249.8l-293.6,78.7c0,0,116.7-68,94-152.5c-9.8-36.8-32.4-64.2-54.8-83.3
	c-62.5,12.2-126.1,21.4-190.6,27.8c-57.1,171.6-135.1,222.9-135.1,222.9H2012c0,0,130.3-35.4,130.3-123c0-38.3-14.9-70.7-31.6-94.9
	c-64.5-4.4-128.3-11.7-191-22c-99.5,150.9-188.2,180.2-188.2,180.2l-293.6-78.7c0,0,135-0.5,157.6-85.1c9.8-36.7,4-71.7-5.8-99.3
	c-61.1-21-120.9-44.7-179.3-71.1c-135,119.9-228.2,125.2-228.2,125.2l-263.3-152c0,0,130.5,34.5,174.2-41.3
	c19.1-33.2,22.4-68.5,20-97.8c-53.3-35.9-104.7-74.3-154.2-114.9c-161.8,81-253.2,62.1-253.2,62.1l-215-215
	c0,0,117.1,67.1,179.1,5.2c27.1-27.1,39.4-60.5,44.8-89.6c-42-48.3-82-98.5-119.4-150.7c-177.2,36.4-260.6-5.6-260.6-5.6l-152-263.3
	c0,0,95.8,95.1,171.6,51.4c33-19.1,53.5-48,66.2-74.4c-28.2-57.6-53.8-116.6-76.5-177c-180.1-10.8-249.8-72.9-249.8-72.9L15,2602.4
	c0,0,68,116.7,152.4,94c36.8-9.8,64.2-32.5,83.3-54.8c-12.2-62.5-21.4-126.2-27.8-190.6C51.3,2393.9,0,2315.9,0,2315.9z
	 M2250.1,2523.9c151.1,0,273.7-122.6,273.7-273.8c0-151.2-122.6-273.8-273.7-273.8c-151.1,0-273.7,122.6-273.7,273.8
	C1976.2,2401.3,2098.8,2523.9,2250.1,2523.9z"/>
  <circle class="st0" cx="2209.5" cy="2250.1" r="1800"/>
  <path class="st1" d="M2219.1,3881.8l250.9-256.6l23.6,51.2L2219.1,3881.8z"/>
  <path class="st1" d="M2428.7,3692.6l194.2,193L2506.3,3712l158.5,92.3l-194.8-179L2428.7,3692.6z"/>
  <path class="st1" d="M2404.9,3725.9l160.5,153.9l-121.7-196.2L2404.9,3725.9z"/>
  <path class="st1" d="M1228.7,3151.5l-17.5,26.5c-68.3,74.5-119.7,130.4-160.2,174.5l0,0l0,0c-53.4,58.1-87.8,95.6-116.8,127.5
	c9.9,9.8,19.9,19.5,30.1,29.1c24-24.6,52.1-53.7,90.7-93.7l-32.7,49.7l260-213.9l10,22.7l-273.7,284.4c5,4.3,10,8.7,15,13
	l286.5-233.9l4.3,9.8l-5.9,9.8L1097,3623c3.1,2.4,6.2,4.8,9.3,7.2l143.6-140l35.8-40.4l177.3-151.6l194.1-112l93.1-162.8l52.4,27.4
	l113.9-275.4l226.1-388.5l61.1,90.9l-55.9,81.9l38.8,51.5l-53.3,77.9l-40.4,255.2l227.3,268.9l-100.6,62.2l314.6-65.3l-100.6-24.5
	l-126.1-265.5l137.8,182.8l17.2-10l-175.7-348.9l172.8,229.1l17.2-10l-158.9-315.4l190.7,283.8l-20.4,169.8l64-160.4l14.8,1.3
	l-67.6,182.3l99.2-179.4l134.8,12.3l413.1,370.5l-221.9-253.7l80.6-149l-100.9,125.8l-6.6-7.6l90.2-166.8l-113,140.8l-15-17.2
	l153.7-206.4l59.1,49.5l114.5-121.6l46.4,93l-36.3,44.9l15.9,31l-42,52.2l15.8,30.7l-46.4,57.4l227.8,442.7l-146.5-432.2l177,344
	l-133.1-392.6l159.3,309.7l-109.7-323.6l153.9,308.4l-17.1,143.4l16.8,10.9l-10.8,89.4c77-70.2,147.8-147,211.5-229.2l-149-136.5
	l-315.8-594.6l-136,169.3l-61.2-30.7L2837,2974.4l-89.1-101.8l-194.6-21.1l-385-639.1L1867,2711.6l-129,195.9l-95.6-0.1
	l-112.7,165.4l-98.8-77.7l-245.5-282.6L1004,2949.3l-123.5-5c0,0-87.7,180.3-166.5,272.4c6.8,9.9,13.7,19.7,20.7,29.5L896.5,2986
	l33.1,8.8l-111.4,211.4L956,3001.8l15.1,4l-112.3,212.7l139-205.6l7,1.8l173.6-226.8l50.1,60l-31.6,66.3l21.5,20.8l-17.6,37h0
	l-75.9,109.8l0,0l-274.6,309.5c0.8,0.9,1.5,1.7,2.3,2.6l301.1-264.4l89.4,7.8L1228.7,3151.5z M895.4,3440.6
	c-8-8.4-15.9-16.8-23.7-25.3l10-9.6l18.7,31.1L895.4,3440.6z M3321.4,3644.4l-70.1-130l-95.9-15.4l148.2,158.6
	C3309.5,3653.2,3315.5,3648.9,3321.4,3644.4z M3242.5,3700.2l-129.2-130.1l-34.6,4.4l27.9,94.2l104.9,51.7
	C3222,3713.8,3232.3,3707.1,3242.5,3700.2z M3124,3773.1l-96.2-117.7l-166-37.7l128.8,135.5l103.1,36.6
	C3103.8,3784.3,3113.9,3778.8,3124,3773.1z M3024.1,3825.4l-93.3-32.8l60,48.5C3001.9,3835.9,3013,3830.7,3024.1,3825.4z
	 M1299.7,3081.8l-2.3,2.3l0-0.1l-0.9,1l-13.1,12.8l-12.6-50.4l131.8,127.6l-114.6-172.6l164.9,159.8l-147.3-222.1l97.3,116.5
	l76.4,90.2l-76.3,112L1299.7,3081.8z M1518.7,3181.2l6-9.1l60.4-55.7l-16-12.6l82.3-126.4l68.7,20.3l-76.9,110.5L1518.7,3181.2z
	 M2969.7,3438.3l114.7,81.2l17.4-10L2839.1,3228l271.2,191.6l17.2-10l-371.5-397.4l-31.3-25l-246.8,509.3l63.2-87.6l-0.3,0.6
	l67.5,56.2l437.7,163L2969.7,3438.3z M1578.4,3547.4l397.2-260.7l39.3,23.6l-81.1,121l42.8,19.9l-83.7,124.9l356.8,165.7
	l-214.9-263.5l255.8,118.9l-193.5-237.4l180.5,108.6L1998.3,3145L1578.4,3547.4z M2952.9,3068.5l24.2-37.4l198.8,292.3
	L2952.9,3068.5z M2788.5,3362.1l125.1,81.1l63.1,107.5l-158-70.7L2788.5,3362.1z M2172.3,2858.2l-17.9,71l132.8,136.1L2172.3,2858.2
	z M1939.6,2773.7l-33.4,94.1l48.1-32.3l73.5-171.9L1939.6,2773.7z M1505,3586.6l224.7-219.5L1872,3227l-165.8,80L1505,3586.6z"/>
  <path class="st2" d="M2240.5,3900.9l261.9-235.2l19.4,52.1L2240.5,3900.9z"/>
  <path class="st2" d="M2457.7,3729.1l175.4,203.4l-101.3-179l147.7,101.8l-176.9-189.7L2457.7,3729.1z"/>
  <path class="st2" d="M2432.2,3760.2l145.3,162.7l-104.6-201.6L2432.2,3760.2z"/>
  <path class="st2" d="M1090.6,3651l145.4-138.4l36.5-40.2l180.8-150.8l198-111.4l94.9-162l53.5,27.3l116-274.1l230.5-386.6l62.4,90.5
	l-57,81.5l39.7,51.3l-54.4,77.5l-41,254l232.1,267.8l-102.6,61.9l320.9-64.8l-102.7-24.4l-128.8-264.3l140.7,182.1l17.5-10
	l-179.4-347.4l176.4,228.2l17.5-10l-162.3-314l194.7,282.7l-20.8,169.1l65.2-159.7l15.1,1.4l-68.8,181.4l101.1-178.6l137.5,12.3
	l421.7,369.1l-226.6-252.7l82.2-148.2l-102.9,125.2l-6.7-7.5l91.9-166l-115.2,140.1l-15.3-17.1l156.7-205.4l60.4,49.4l116.7-121.1
	l47.4,92.6l-37,44.7l16.3,30.8l-42.9,51.9l16.1,30.5l-47.3,57.2l232.7,440.8l-149.7-430.4l180.8,342.5l-136-390.9l162.7,308.4
	L3343.2,3005l157.2,307.1l-17.4,142.8l17.1,10.9l-11.3,91.8c79.1-70.4,151.8-147.3,217.1-229.9l-153.2-136.9l-322.5-592.1
	l-138.7,168.5l-62.4-30.6L2855.1,3000l-90.9-101.4l-198.6-21.1L2172.4,2241l-307.2,496.9l-131.5,194.9l-97.5-0.2l-114.9,164.6
	l-100.9-77.4l-250.6-281.5l-185,235.6l-126-5c0,0-88.2,177.1-168.1,269.3c6.8,9.8,13.8,19.5,20.8,29.1l163.7-256.9l33.8,8.8
	l-113.5,210.4l140.5-203.3l15.4,4L836.9,3242l141.7-204.6l7.1,1.8l177-225.7l51.2,59.8l-32.2,66l21.9,20.7l-17.9,36.8l0,0
	l-77.4,109.3l0,0l-278.6,306.4c0.8,0.9,1.7,1.9,2.5,2.8l305.6-261.7l91.2,7.8l-14.7,14l-17.8,26.4c-69.5,74-121.9,129.6-163.2,173.5
	l0,0l-0.1,0.1l-0.1,0.1l0,0c-53.7,57.1-88.6,94.1-117.9,125.6c10.1,9.8,20.4,19.5,30.7,29.1c24.2-24.2,52.5-52.9,91.2-92l-33.4,49.5
	l265.2-212.8l10.2,22.6l-278,281.8c5.1,4.4,10.3,8.7,15.5,13.1l291-231.7l4.4,9.7l-6,9.8L1081,3643.7
	C1084.2,3646.2,1087.4,3648.6,1090.6,3651z M875.8,3461.9l3.6-2.7l-19.1-31l-8.7,8.2C859.5,3445,867.6,3453.5,875.8,3461.9z
	 M3350.7,3669.1l-72.6-131.3l-97.9-15.4l152.7,159.4C3338.9,3677.6,3344.8,3673.4,3350.7,3669.1z M3270.8,3724.3l-133.4-131.1
	l-35.3,4.4l28.5,93.8l109.3,52.6C3250.4,3737.5,3260.6,3730.9,3270.8,3724.3z M3149.7,3796.9l-99.6-118.8l-169.4-37.6l131.5,134.9
	l107.9,37.5C3130,3807.6,3139.9,3802.3,3149.7,3796.9z M3049.3,3848.2l-98.1-33.6l63.1,49.7
	C3026,3859.1,3037.7,3853.7,3049.3,3848.2z M1286.6,3106.1l-2.4,2.3l0-0.1l-0.9,1l-13.3,12.8l-12.9-50.2l134.5,127.1l-117-171.9
	l168.3,159.2l-150.4-221.2l99.4,116l78,89.8l-77.8,111.5L1286.6,3106.1z M1510.1,3205.2l6.1-9.1l61.6-55.4l-16.3-12.5l83.9-125.8
	l70.1,20.2l-78.4,110L1510.1,3205.2z M2990.8,3461.9l117.1,80.9l17.7-10l-268.2-280.3l276.8,190.9l17.5-10l-379.3-395.8l-32-24.9
	l-251.5,506.8l64.5-87.1l-0.3,0.6l68.9,56l446.7,162.4L2990.8,3461.9z M1571.2,3569.7l405.1-259.3l40.1,23.5l-82.7,120.4l43.7,19.8
	l-85.3,124.3l364.1,165.1l-219.4-262.4l261.1,118.5l-197.5-236.4l184.2,108.2l-285.2-322L1571.2,3569.7z M2973.4,3093.8l24.7-37.3
	l203,291.1L2973.4,3093.8z M2805.9,3385.9l127.7,80.8l64.5,107l-161.3-70.5L2805.9,3385.9z M2176.9,2884l-18.2,70.6l135.6,135.5
	L2176.9,2884z M1939.3,2799.7l-34,93.6l49-32.1l74.9-171.1L1939.3,2799.7z M1496.4,3608.7l229.2-218.4l145.1-139.4l-169.2,79.5
	L1496.4,3608.7z"/>
  <defs>
    <filter id="Adobe_OpacityMaskFilter" filterUnits="userSpaceOnUse" x="689.4" y="2239.1" width="3017.9" height="1626.3">
      <feColorMatrix type="matrix" values="1 0 0 0 0  0 1 0 0 0  0 0 1 0 0  0 0 0 1 0"/>
    </filter>
  </defs>
  <mask maskUnits="userSpaceOnUse" x="689.4" y="2239.1" width="3017.9" height="1626.3" id="path-10-inside-1_108_16_00000178887411693998826800000013167947780937157303_">
    <path class="st3" d="M1090.6,3651l145.4-138.4l36.5-40.2l180.8-150.8l198-111.4l94.9-162l53.5,27.3l116-274.1l230.5-386.6
		l62.4,90.5l-57,81.5l39.7,51.3l-54.4,77.5l-41,254l232.1,267.8l-102.6,61.9l320.9-64.8l-102.7-24.4l-128.8-264.3l140.7,182.1
		l17.5-10l-179.4-347.4l176.4,228.2l17.5-10l-162.3-314l194.7,282.7l-20.8,169.1l65.2-159.7l15.1,1.4l-68.8,181.4l101.1-178.6
		l137.5,12.3l421.7,369.1l-226.6-252.7l82.2-148.2l-102.9,125.2l-6.7-7.5l91.9-166l-115.2,140.1l-15.3-17.1l156.7-205.4l60.4,49.4
		l116.7-121.1l47.4,92.6l-37,44.7l16.3,30.8l-42.9,51.9l16.1,30.5l-47.3,57.2l232.7,440.8l-149.7-430.4l180.8,342.5l-136-390.9
		l162.7,308.4L3343.2,3005l157.2,307.1l-17.4,142.8l17.1,10.9l-11.3,91.8c79.1-70.4,151.8-147.3,217.1-229.9l-153.2-136.9
		l-322.5-592.1l-138.7,168.5l-62.4-30.6L2855.1,3000l-90.9-101.4l-198.6-21.1L2172.4,2241l-307.2,496.9l-131.5,194.9l-97.5-0.2
		l-114.9,164.6l-100.9-77.4l-250.6-281.5l-185,235.6l-126-5c0,0-88.2,177.1-168.1,269.3c6.8,9.8,13.8,19.5,20.8,29.1l163.7-256.9
		l33.8,8.8l-113.5,210.4l140.5-203.3l15.4,4L836.9,3242l141.7-204.6l7.1,1.8l177-225.7l51.2,59.8l-32.2,66l21.9,20.7l-17.9,36.8l0,0
		l-77.4,109.3l0,0l-278.6,306.4c0.8,0.9,1.7,1.9,2.5,2.8l305.6-261.7l91.2,7.8l-14.7,14l-17.8,26.4
		c-69.5,74-121.9,129.6-163.2,173.5l0,0l-0.1,0.1l-0.1,0.1l0,0c-53.7,57.1-88.6,94.1-117.9,125.6c10.1,9.8,20.4,19.5,30.7,29.1
		c24.2-24.2,52.5-52.9,91.2-92l-33.4,49.5l265.2-212.8l10.2,22.6l-278,281.8c5.1,4.4,10.3,8.7,15.5,13.1l291-231.7l4.4,9.7l-6,9.8
		L1081,3643.7C1084.2,3646.2,1087.4,3648.6,1090.6,3651z M875.8,3461.9l3.6-2.7l-19.1-31l-8.7,8.2
		C859.5,3445,867.6,3453.5,875.8,3461.9z M3350.7,3669.1l-72.6-131.3l-97.9-15.4l152.7,159.4
		C3338.9,3677.6,3344.8,3673.4,3350.7,3669.1z M3270.8,3724.3l-133.4-131.1l-35.3,4.4l28.5,93.8l109.3,52.6
		C3250.4,3737.5,3260.6,3730.9,3270.8,3724.3z M3149.7,3796.9l-99.6-118.8l-169.4-37.6l131.5,134.9l107.9,37.5
		C3130,3807.6,3139.9,3802.3,3149.7,3796.9z M3049.3,3848.2l-98.1-33.6l63.1,49.7C3026,3859.1,3037.7,3853.7,3049.3,3848.2z
		 M1286.6,3106.1l-2.4,2.3l0-0.1l-0.9,1l-13.3,12.8l-12.9-50.2l134.5,127.1l-117-171.9l168.3,159.2l-150.4-221.2l99.4,116l78,89.8
		l-77.8,111.5L1286.6,3106.1z M1510.1,3205.2l6.1-9.1l61.6-55.4l-16.3-12.5l83.9-125.8l70.1,20.2l-78.4,110L1510.1,3205.2z
		 M2990.8,3461.9l117.1,80.9l17.7-10l-268.2-280.3l276.8,190.9l17.5-10l-379.3-395.8l-32-24.9l-251.5,506.8l64.5-87.1l-0.3,0.6
		l68.9,56l446.7,162.4L2990.8,3461.9z M1571.2,3569.7l405.1-259.3l40.1,23.5l-82.7,120.4l43.7,19.8l-85.3,124.3l364.1,165.1
		l-219.4-262.4l261.1,118.5l-197.5-236.4l184.2,108.2l-285.2-322L1571.2,3569.7z M2973.4,3093.8l24.7-37.3l203,291.1L2973.4,3093.8z
		 M2805.9,3385.9l127.7,80.8l64.5,107l-161.3-70.5L2805.9,3385.9z M2176.9,2884l-18.2,70.6l135.6,135.5L2176.9,2884z M1939.3,2799.7
		l-34,93.6l49-32.1l74.9-171.1L1939.3,2799.7z M1496.4,3608.7l229.2-218.4l145.1-139.4l-169.2,79.5L1496.4,3608.7z"/>
  </mask>
  <path class="st4" d="M1236,3512.6l0.7,0.7l0,0l0,0L1236,3512.6z M1090.6,3651l-0.6,0.8l0.7,0.5l0.6-0.6L1090.6,3651z M1272.6,3472.4
	l-0.6-0.8l-0.1,0l0,0.1L1272.6,3472.4z M1453.3,3321.6l-0.5-0.9l-0.1,0l-0.1,0.1L1453.3,3321.6z M1651.3,3210.2l0.5,0.9l0.2-0.1
	l0.1-0.2L1651.3,3210.2z M1746.2,3048.2l0.4-0.9l-0.8-0.4l-0.5,0.8L1746.2,3048.2z M1799.7,3075.5l-0.5,0.9l1,0.5l0.4-1
	L1799.7,3075.5z M1915.7,2801.4l-0.9-0.5l0,0.1l0,0.1L1915.7,2801.4z M2146.2,2414.8l0.8-0.6l-0.9-1.3l-0.8,1.3L2146.2,2414.8z
	 M2208.5,2505.4l0.8,0.6l0.4-0.6l-0.4-0.6L2208.5,2505.4z M2151.6,2586.8l-0.8-0.6l-0.4,0.6l0.5,0.6L2151.6,2586.8z M2191.2,2638.1
	l0.8,0.6l0.4-0.6l-0.4-0.6L2191.2,2638.1z M2136.8,2715.7l-0.8-0.6l-0.1,0.2l0,0.2L2136.8,2715.7z M2095.8,2969.7l-1-0.2l-0.1,0.5
	l0.3,0.4L2095.8,2969.7z M2327.9,3237.5l0.5,0.9l1-0.6l-0.8-0.9L2327.9,3237.5z M2225.3,3299.4l-0.5-0.9l0.7,1.8L2225.3,3299.4z
	 M2546.3,3234.6l0.2,1l0-1.9L2546.3,3234.6z M2443.6,3210.2l-0.9,0.4l0.2,0.4l0.5,0.1L2443.6,3210.2z M2314.8,2945.8l0.8-0.6
	l-1.7,1.1L2314.8,2945.8z M2455.5,3127.9l-0.8,0.6l0.5,0.7l0.8-0.4L2455.5,3127.9z M2473,3117.9l0.5,0.9l0.8-0.5l-0.4-0.9
	L2473,3117.9z M2293.6,2770.5l0.8-0.6l-1.7,1.1L2293.6,2770.5z M2470,2998.7l-0.8,0.6l0.5,0.7l0.8-0.4L2470,2998.7z M2487.5,2988.7
	l0.5,0.9l0.8-0.5l-0.4-0.9L2487.5,2988.7z M2325.2,2674.7l0.8-0.6l-1.7,1L2325.2,2674.7z M2519.9,2957.3l1,0.1l0.1-0.4l-0.2-0.3
	L2519.9,2957.3z M2499.2,3126.4l-1-0.1l1.9,0.5L2499.2,3126.4z M2564.4,2966.7l0.1-1l-0.7-0.1l-0.3,0.7L2564.4,2966.7z
	 M2579.5,2968.1l0.9,0.4l0.5-1.2l-1.3-0.1L2579.5,2968.1z M2510.7,3149.5l-0.9-0.4l1.8,0.9L2510.7,3149.5z M2611.8,2970.9l0.1-1
	l-0.6,0l-0.3,0.6L2611.8,2970.9z M2749.3,2983.2l0.7-0.8l-0.2-0.2l-0.3,0L2749.3,2983.2z M3171.1,3352.3l-0.6,0.8l1.4-1.4
	L3171.1,3352.3z M2944.5,3099.7l-0.9-0.5l-0.4,0.6l0.5,0.5L2944.5,3099.7z M3026.7,2951.4l0.9,0.5l-1.6-1.1L3026.7,2951.4z
	 M2923.8,3076.6l-0.8,0.7l0.8,0.9l0.7-0.9L2923.8,3076.6z M2917.1,3069.1l-0.9-0.5l-0.3,0.6l0.5,0.5L2917.1,3069.1z M3009,2903.1
	l0.9,0.5l-1.6-1.1L3009,2903.1z M2893.8,3043.1l-0.7,0.7l0.8,0.9l0.7-0.9L2893.8,3043.1z M2878.5,3026l-0.8-0.6l-0.5,0.7l0.6,0.6
	L2878.5,3026z M3035.1,2820.7l0.6-0.8l-0.8-0.7l-0.6,0.8L3035.1,2820.7z M3095.5,2870l-0.6,0.8l0.7,0.6l0.6-0.7L3095.5,2870z
	 M3212.2,2749l0.9-0.4l-0.6-1.2l-1,1L3212.2,2749z M3259.6,2841.6l0.8,0.6l0.4-0.5l-0.3-0.6L3259.6,2841.6z M3222.6,2886.3l-0.8-0.6
	l-0.4,0.5l0.3,0.6L3222.6,2886.3z M3238.9,2917.2l0.8,0.6l0.4-0.5l-0.3-0.6L3238.9,2917.2z M3196,2969.1l-0.8-0.6l-0.4,0.5l0.3,0.6
	L3196,2969.1z M3212.1,2999.6l0.8,0.6l0.4-0.5l-0.3-0.6L3212.1,2999.6z M3164.9,3056.8l-0.8-0.6l-0.4,0.5l0.3,0.6L3164.9,3056.8z
	 M3397.5,3497.6l-0.9,0.5l1.8-0.8L3397.5,3497.6z M3247.8,3067.2l0.9-0.5l-1.8,0.8L3247.8,3067.2z M3428.6,3409.8l-0.9,0.5l1.8-0.8
	L3428.6,3409.8z M3292.5,3018.8l0.9-0.5l-1.8,0.8L3292.5,3018.8z M3455.3,3327.2l-0.9,0.5l1.8-0.8L3455.3,3327.2z M3343.2,3005
	l0.9-0.4l-1.8,0.8L3343.2,3005z M3500.3,3312.1l1,0.1l0-0.3l-0.1-0.3L3500.3,3312.1z M3483,3454.9l-1-0.1l-0.1,0.6l0.5,0.3
	L3483,3454.9z M3500.1,3465.8l1,0.1l0.1-0.6l-0.5-0.3L3500.1,3465.8z M3488.8,3557.6l-1-0.1l-0.3,2.6l2-1.8L3488.8,3557.6z
	 M3705.9,3327.8l0.8,0.6l0.6-0.7l-0.7-0.6L3705.9,3327.8z M3552.7,3190.9l-0.9,0.5l0.1,0.1l0.1,0.1L3552.7,3190.9z M3230.2,2598.8
	l0.9-0.5l-0.7-1.3l-0.9,1.1L3230.2,2598.8z M3091.5,2767.3l-0.4,0.9l0.7,0.3l0.5-0.6L3091.5,2767.3z M3029.1,2736.7l0.4-0.9
	l-0.8-0.4l-0.5,0.7L3029.1,2736.7z M2855.1,3000l-0.8,0.7l0.9,1l0.7-1.1L2855.1,3000z M2764.2,2898.6l0.8-0.7l-0.3-0.3l-0.4,0
	L2764.2,2898.6z M2565.6,2877.5l-0.9,0.5l0.3,0.4l0.5,0.1L2565.6,2877.5z M2172.4,2241l0.9-0.5l-0.9-1.4l-0.9,1.4L2172.4,2241z
	 M1865.2,2737.9l0.8,0.6l0,0l0,0L1865.2,2737.9z M1733.7,2932.9v1h0.5l0.3-0.4L1733.7,2932.9z M1636.2,2932.7v-1h-0.5l-0.3,0.4
	L1636.2,2932.7z M1521.3,3097.3l-0.6,0.8l0.8,0.6l0.6-0.9L1521.3,3097.3z M1420.4,3019.9l-0.8,0.7l0.1,0.1l0.1,0.1L1420.4,3019.9z
	 M1169.8,2738.4l0.7-0.7l-0.8-0.9l-0.7,0.9L1169.8,2738.4z M984.8,2974l0,1l0.5,0l0.3-0.4L984.8,2974z M858.7,2969l0-1l-0.6,0
	l-0.3,0.6L858.7,2969z M690.6,3238.3l-0.8-0.7l-0.5,0.6l0.4,0.6L690.6,3238.3z M711.5,3267.4l-0.8,0.6l0.9,1.2l0.8-1.2L711.5,3267.4
	z M875.2,3010.5l0.2-1l-0.7-0.2l-0.4,0.6L875.2,3010.5z M908.9,3019.3l0.9,0.5l0.6-1.1l-1.2-0.3L908.9,3019.3z M795.4,3229.6
	l-0.9-0.5l1.7,1L795.4,3229.6z M935.9,3026.3l0.2-1l-0.7-0.2l-0.4,0.6L935.9,3026.3z M951.3,3030.3l0.9,0.5l0.6-1.1l-1.2-0.3
	L951.3,3030.3z M836.9,3242l-0.9-0.5l1.7,1L836.9,3242z M978.6,3037.4l0.2-1l-0.7-0.2l-0.4,0.6L978.6,3037.4z M985.7,3039.2l-0.2,1
	l0.6,0.2l0.4-0.5L985.7,3039.2z M1162.7,2813.6l0.8-0.6l-0.8-0.9l-0.8,0.9L1162.7,2813.6z M1213.9,2873.4l0.9,0.4l0.3-0.6l-0.4-0.5
	L1213.9,2873.4z M1181.7,2939.3l-0.9-0.4l-0.3,0.7l0.5,0.5L1181.7,2939.3z M1203.6,2960l0.9,0.4l0.3-0.7l-0.5-0.5L1203.6,2960z
	 M1185.7,2996.8l0.1,1l0.5-0.1l0.2-0.5L1185.7,2996.8z M1185.6,2996.8l-0.1-1l-0.4,0.1l-0.2,0.4L1185.6,2996.8z M1108.3,3106.1
	l-0.5,0.8l0.8,0.5l0.6-0.8L1108.3,3106.1z M1108.2,3106.1l0.5-0.8l-0.7-0.5l-0.6,0.6L1108.2,3106.1z M829.6,3412.5l-0.7-0.7
	l-0.6,0.7l0.6,0.7L829.6,3412.5z M832.1,3415.3l-0.7,0.7l0.7,0.7l0.7-0.6L832.1,3415.3z M1137.6,3153.6l0.1-1l-0.4,0l-0.3,0.3
	L1137.6,3153.6z M1228.8,3161.4l0.7,0.7l1.6-1.5l-2.2-0.2L1228.8,3161.4z M1214.2,3175.4l-0.7-0.7l-0.1,0.1l-0.1,0.1L1214.2,3175.4z
	 M1196.4,3201.9l0.7,0.7l0.1-0.1l0.1-0.1L1196.4,3201.9z M1033.2,3375.3l-0.7-0.7l0,0L1033.2,3375.3z M1033.2,3375.3l0.7,0.7l0,0
	L1033.2,3375.3z M1033.1,3375.4l0.7,0.7l0,0L1033.1,3375.4z M1033,3375.5l-0.7-0.7v0L1033,3375.5z M1033,3375.5l0.7,0.7v0
	L1033,3375.5z M915.1,3501.1l-0.7-0.7l-0.7,0.7l0.7,0.7L915.1,3501.1z M945.8,3530.2l-0.7,0.7l0.7,0.7l0.7-0.7L945.8,3530.2z
	 M1037.1,3438.2l0.8,0.6l-1.5-1.3L1037.1,3438.2z M1003.7,3487.6l-0.8-0.6l1.5,1.3L1003.7,3487.6z M1268.9,3274.9l0.9-0.4l-0.5-1.2
	l-1,0.8L1268.9,3274.9z M1279,3297.4l0.7,0.7l0.5-0.5l-0.3-0.6L1279,3297.4z M1001.1,3579.2l-0.7-0.7l-0.8,0.8l0.8,0.7
	L1001.1,3579.2z M1016.5,3592.3l-0.6,0.8l0.6,0.5l0.6-0.5L1016.5,3592.3z M1307.5,3360.6l0.9-0.4l-0.5-1.2l-1,0.8L1307.5,3360.6z
	 M1311.9,3370.3l0.9,0.5l0.3-0.4l-0.2-0.5L1311.9,3370.3z M1305.9,3380.1l0.8,0.6l0.1-0.1l0-0.1L1305.9,3380.1z M1081,3643.7
	l-0.8-0.6l-0.7,0.8l0.8,0.6L1081,3643.7z M879.4,3459.2l0.6,0.8l0.7-0.6l-0.5-0.8L879.4,3459.2z M875.8,3461.9l-0.7,0.7l0.6,0.6
	l0.7-0.5L875.8,3461.9z M860.3,3428.2l0.9-0.5l-0.6-1l-0.9,0.8L860.3,3428.2z M851.5,3436.4l-0.7-0.7l-0.7,0.7l0.7,0.7L851.5,3436.4
	z M3278.1,3537.8l0.9-0.5l-0.2-0.4l-0.5-0.1L3278.1,3537.8z M3350.7,3669.1l0.6,0.8l0.7-0.5l-0.4-0.8L3350.7,3669.1z M3180.3,3522.4
	l0.1-1l-2.9-0.5l2,2.1L3180.3,3522.4z M3333,3681.9l-0.7,0.7l0.6,0.6l0.7-0.5L3333,3681.9z M3270.8,3724.3l0.5,0.8l1-0.7l-0.9-0.9
	L3270.8,3724.3z M3137.5,3593.2l0.7-0.7l-0.4-0.3l-0.5,0.1L3137.5,3593.2z M3102.2,3597.6l-0.1-1l-1.2,0.1l0.4,1.1L3102.2,3597.6z
	 M3130.7,3691.4l-1,0.3l0.1,0.4l0.4,0.2L3130.7,3691.4z M3240,3743.9l-0.4,0.9l0.5,0.2l0.5-0.3L3240,3743.9z M3050.1,3678.1l0.8-0.6
	l-0.2-0.3l-0.3-0.1L3050.1,3678.1z M3149.7,3796.9l0.5,0.9l1.1-0.6l-0.8-0.9L3149.7,3796.9z M2880.7,3640.4l0.2-1l-3.3-0.7l2.3,2.4
	L2880.7,3640.4z M3012.2,3775.4l-0.7,0.7l0.2,0.2l0.2,0.1L3012.2,3775.4z M3120.1,3812.8l-0.3,0.9l0.4,0.1l0.4-0.2L3120.1,3812.8z
	 M3049.3,3848.2l0.4,0.9l2.2-1.1l-2.3-0.8L3049.3,3848.2z M2951.2,3814.6l0.3-0.9l-0.9,1.7L2951.2,3814.6z M3014.3,3864.3l-0.6,0.8
	l0.5,0.4l0.6-0.2L3014.3,3864.3z M1284.2,3108.4l-0.9,0.4l0.6,1.3l1-1L1284.2,3108.4z M1286.6,3106.1l0.9-0.5l-0.7-1.1l-0.9,0.9
	L1286.6,3106.1z M1284.2,3108.3l0.9-0.4l-0.6-1.4l-1,1.1L1284.2,3108.3z M1283.2,3109.3l0.7,0.7l0,0l0,0L1283.2,3109.3z
	 M1269.9,3122.1l-1,0.2l0.4,1.7l1.2-1.2L1269.9,3122.1z M1257,3071.9l0.7-0.7l-2.5-2.4l0.9,3.4L1257,3071.9z M1391.5,3199l-0.7,0.7
	l1.5-1.3L1391.5,3199z M1274.6,3027.1l0.7-0.7l-1.5,1.3L1274.6,3027.1z M1442.9,3186.3l-0.7,0.7l1.5-1.3L1442.9,3186.3z
	 M1292.5,2965.1l0.8-0.6l-1.6,1.2L1292.5,2965.1z M1391.8,3081.1l-0.8,0.6l0,0L1391.8,3081.1z M1469.9,3171l0.8,0.6l0.4-0.6
	l-0.5-0.6L1469.9,3171z M1392,3282.4l-0.8,0.5l0.8,1.3l0.9-1.3L1392,3282.4z M1516.2,3196.1l-0.7-0.7l-0.1,0.1l-0.1,0.1
	L1516.2,3196.1z M1510.1,3205.2l-0.8-0.6l1.3,1.4L1510.1,3205.2z M1577.8,3140.6l0.7,0.8l0.9-0.8l-1-0.7L1577.8,3140.6z
	 M1561.5,3128.1l-0.8-0.6l-0.5,0.8l0.8,0.6L1561.5,3128.1z M1645.4,3002.4l0.3-1l-0.7-0.2l-0.4,0.6L1645.4,3002.4z M1715.5,3022.6
	l0.8,0.6l0.8-1.2l-1.4-0.4L1715.5,3022.6z M1637.1,3132.6l0.5,0.9l0.2-0.1l0.1-0.2L1637.1,3132.6z M3107.9,3542.8l-0.6,0.8l0.5,0.4
	l0.5-0.3L3107.9,3542.8z M2990.8,3461.9l0.6-0.8l-2.8-1.9l1.3,3.1L2990.8,3461.9z M3125.6,3532.8l0.5,0.9l1.1-0.6l-0.9-0.9
	L3125.6,3532.8z M2857.4,3252.5l0.6-0.8l-1.3,1.5L2857.4,3252.5z M3134.2,3443.4l-0.6,0.8l0.5,0.4l0.6-0.3L3134.2,3443.4z
	 M3151.7,3433.4l0.5,0.9l1.1-0.6l-0.9-0.9L3151.7,3433.4z M2772.4,3037.6l0.7-0.7l-0.1-0.1l0-0.1L2772.4,3037.6z M2740.4,3012.7
	l0.6-0.8l-1-0.8l-0.5,1.1L2740.4,3012.7z M2488.9,3519.6l-0.9-0.4l1.7,1L2488.9,3519.6z M2553.3,3432.4l0.9,0.5l-1.7-1.1
	L2553.3,3432.4z M2553,3433l-0.9-0.5l-0.4,0.7l0.6,0.5L2553,3433z M2621.9,3489l-0.6,0.8l0.1,0.1l0.2,0.1L2621.9,3489z
	 M3068.6,3651.4l-0.3,0.9l2.1,0.8l-0.9-2.1L3068.6,3651.4z M1976.4,3310.4l0.5-0.9l-0.5-0.3l-0.5,0.3L1976.4,3310.4z M1571.2,3569.7
	l-0.7-0.7l1.2,1.6L1571.2,3569.7z M2016.5,3334l0.8,0.6l0.6-0.9l-0.9-0.5L2016.5,3334z M1933.8,3454.4l-0.8-0.6l-0.7,1l1.1,0.5
	L1933.8,3454.4z M1977.5,3474.2l0.8,0.6l0.7-1l-1.1-0.5L1977.5,3474.2z M1892.1,3598.4l-0.8-0.6l-0.7,1l1.1,0.5L1892.1,3598.4z
	 M2256.3,3763.6l-0.4,0.9l1.2-1.5L2256.3,3763.6z M2036.9,3501.2l0.4-0.9l-1.2,1.6L2036.9,3501.2z M2297.9,3619.7l-0.4,0.9l1.2-1.6
	L2297.9,3619.7z M2100.4,3383.2l0.5-0.9l-1.3,1.5L2100.4,3383.2z M2284.6,3491.4l-0.5,0.9l1.2-1.5L2284.6,3491.4z M1999.4,3169.4
	l0.8-0.7l-0.7-0.8l-0.8,0.7L1999.4,3169.4z M2998.2,3056.5l0.8-0.6l-0.9-1.2l-0.8,1.2L2998.2,3056.5z M2973.4,3093.8l-0.8-0.6
	l-0.4,0.6l0.5,0.6L2973.4,3093.8z M3201.1,3347.6l-0.7,0.7l1.6-1.2L3201.1,3347.6z M2933.6,3466.8l0.9-0.5l-0.1-0.2l-0.2-0.1
	L2933.6,3466.8z M2805.9,3385.9l0.5-0.8l-2.1-1.4l0.6,2.4L2805.9,3385.9z M2998.1,3573.8l-0.4,0.9l2.9,1.2l-1.6-2.7L2998.1,3573.8z
	 M2836.8,3503.3l-1,0.3l0.1,0.5l0.4,0.2L2836.8,3503.3z M2158.6,2954.6l-1-0.2l-0.1,0.6l0.4,0.4L2158.6,2954.6z M2176.9,2884
	l0.9-0.5l-1.2-2.1l-0.6,2.4L2176.9,2884z M2294.2,3090.2l-0.7,0.7l1.6-1.2L2294.2,3090.2z M1905.3,2893.4l-0.9-0.4l-1,2.8l2.5-1.7
	L1905.3,2893.4z M1939.3,2799.7l-0.8-0.6l-0.1,0.1l-0.1,0.2L1939.3,2799.7z M1954.4,2861.3l0.6,0.8l0.2-0.2l0.1-0.3L1954.4,2861.3z
	 M2029.3,2690.2l0.9,0.4l-1.7-1L2029.3,2690.2z M1725.5,3390.3l0.7,0.7l0,0L1725.5,3390.3z M1496.4,3608.7l-0.8-0.6l1.5,1.3
	L1496.4,3608.7z M1870.7,3250.9l0.7,0.7l-1.1-1.6L1870.7,3250.9z M1701.5,3330.5l-0.4-0.9l-0.2,0.1l-0.2,0.2L1701.5,3330.5z
	 M1235.3,3511.9l-145.4,138.4l1.4,1.4l145.4-138.4L1235.3,3511.9z M1271.8,3471.8l-36.5,40.2l1.5,1.4l36.5-40.2L1271.8,3471.8z
	 M1452.7,3320.9l-180.8,150.8l1.3,1.5l180.8-150.8L1452.7,3320.9z M1650.8,3209.4l-198,111.4l1,1.7l198-111.4L1650.8,3209.4z
	 M1745.3,3047.7l-94.9,162l1.7,1l94.9-162L1745.3,3047.7z M1800.1,3074.7l-53.5-27.3l-0.9,1.8l53.5,27.3L1800.1,3074.7z
	 M1914.8,2801l-116,274.1l1.8,0.8l116-274.1L1914.8,2801z M2145.3,2414.3l-230.5,386.6l1.7,1l230.5-386.6L2145.3,2414.3z
	 M2209.4,2504.8l-62.4-90.5l-1.6,1.1l62.4,90.5L2209.4,2504.8z M2152.4,2587.4l57-81.5l-1.6-1.2l-57,81.5L2152.4,2587.4z
	 M2192,2637.5l-39.7-51.3l-1.6,1.2l39.7,51.3L2192,2637.5z M2137.7,2716.2l54.4-77.5l-1.6-1.1l-54.4,77.5L2137.7,2716.2z
	 M2096.8,2969.9l41-254l-2-0.3l-41,254L2096.8,2969.9z M2328.7,3236.8l-232.1-267.8l-1.5,1.3l232.1,267.8L2328.7,3236.8z
	 M2225.8,3300.2l102.6-61.9l-1-1.7l-102.6,61.9L2225.8,3300.2z M2546.1,3233.6l-320.9,64.8l0.4,2l320.9-64.8L2546.1,3233.6z
	 M2443.4,3211.1l102.7,24.4l0.4-1.9l-102.6-24.4L2443.4,3211.1z M2313.9,2946.3l128.9,264.3l1.8-0.9l-128.9-264.3L2313.9,2946.3z
	 M2456.3,3127.3l-140.7-182.1l-1.6,1.2l140.7,182.1L2456.3,3127.3z M2472.5,3117.1l-17.5,10l1,1.7l17.5-10L2472.5,3117.1z
	 M2292.7,2771l179.4,347.4l1.8-0.9l-179.4-347.4L2292.7,2771z M2470.8,2998.1l-176.4-228.2l-1.6,1.2l176.4,228.2L2470.8,2998.1z
	 M2487,2987.9l-17.5,10l1,1.7l17.5-10L2487,2987.9z M2324.3,2675.1l162.3,314.1l1.8-0.9l-162.3-314.1L2324.3,2675.1z M2520.7,2956.8
	L2326,2674.1l-1.7,1.1l194.7,282.7L2520.7,2956.8z M2500.1,3126.5l20.8-169.1l-2-0.2l-20.8,169.1L2500.1,3126.5z M2563.5,2966.3
	l-65.2,159.7l1.8,0.8l65.2-159.7L2563.5,2966.3z M2579.6,2967.1l-15.1-1.4l-0.2,2l15.1,1.4L2579.6,2967.1z M2511.6,3149.9
	l68.8-181.4l-1.9-0.7l-68.8,181.4L2511.6,3149.9z M2610.9,2970.5L2509.8,3149l1.7,1l101.1-178.6L2610.9,2970.5z M2749.4,2982.2
	l-137.5-12.3l-0.2,2l137.5,12.3L2749.4,2982.2z M3171.7,3351.6L2750,2982.5l-1.3,1.5l421.7,369.1L3171.7,3351.6z M2943.8,3100.3
	l226.6,252.7l1.5-1.3L2945.3,3099L2943.8,3100.3z M3025.8,2950.9l-82.2,148.3l1.8,1l82.2-148.3L3025.8,2950.9z M2924.6,3077.2
	l102.9-125.2l-1.5-1.3L2923,3076L2924.6,3077.2z M2916.3,3069.8l6.7,7.5l1.5-1.3l-6.7-7.5L2916.3,3069.8z M3008.1,2902.6l-91.9,166
	l1.8,1l91.9-166L3008.1,2902.6z M2894.6,3043.8l115.2-140.1l-1.6-1.3l-115.2,140L2894.6,3043.8z M2877.7,3026.7l15.3,17.1l1.5-1.3
	l-15.3-17.1L2877.7,3026.7z M3034.3,2820.1l-156.6,205.4l1.6,1.2l156.7-205.4L3034.3,2820.1z M3096.1,2869.3l-60.3-49.4l-1.3,1.5
	l60.3,49.4L3096.1,2869.3z M3211.5,2748.3l-116.7,121l1.4,1.4l116.7-121L3211.5,2748.3z M3260.5,2841.2l-47.4-92.6l-1.8,0.9
	l47.4,92.6L3260.5,2841.2z M3223.4,2887l37-44.7l-1.5-1.3l-37,44.7L3223.4,2887z M3239.8,2916.7l-16.3-30.8l-1.8,0.9l16.3,30.8
	L3239.8,2916.7z M3196.8,2969.7l42.9-51.9l-1.5-1.3l-42.9,51.9L3196.8,2969.7z M3213,2999.2l-16.1-30.5l-1.8,0.9l16.1,30.5
	L3213,2999.2z M3165.6,3057.4l47.3-57.2l-1.5-1.3l-47.3,57.2L3165.6,3057.4z M3398.4,3497.2l-232.7-440.8l-1.8,0.9l232.7,440.8
	L3398.4,3497.2z M3246.9,3067.6l149.7,430.4l1.9-0.7l-149.7-430.4L3246.9,3067.6z M3429.4,3409.3l-180.8-342.5l-1.8,0.9l180.8,342.5
	L3429.4,3409.3z M3291.6,3019.1l136,390.9l1.9-0.7l-136-390.9L3291.6,3019.1z M3456.2,3326.7l-162.8-308.3l-1.8,0.9l162.8,308.4
	L3456.2,3326.7z M3342.2,3005.3l112.1,322.2l1.9-0.6l-112.1-322.2L3342.2,3005.3z M3501.2,3311.7l-157.2-307.1l-1.8,0.9l157.2,307.1
	L3501.2,3311.7z M3484,3455l17.4-142.8l-2-0.2l-17.4,142.8L3484,3455z M3500.6,3465l-17.1-10.9l-1.1,1.7l17.1,10.9L3500.6,3465z
	 M3489.8,3557.8l11.3-91.8l-2-0.2l-11.3,91.8L3489.8,3557.8z M3489.5,3558.4c79.1-70.4,151.8-147.4,217.2-230l-1.6-1.2
	c-65.3,82.5-137.9,159.4-217,229.7L3489.5,3558.4z M3552.1,3191.6l153.2,136.9l1.3-1.5l-153.2-136.9L3552.1,3191.6z M3229.3,2599.3
	l322.6,592.1l1.8-0.9l-322.5-592.1L3229.3,2599.3z M3092.3,2767.9l138.7-168.5l-1.5-1.3l-138.7,168.5L3092.3,2767.9z M3028.6,2737.6
	l62.4,30.6l0.9-1.8l-62.4-30.6L3028.6,2737.6z M2855.9,3000.5l173.9-263.2l-1.7-1.1l-173.9,263.2L2855.9,3000.5z M2763.4,2899.3
	l90.9,101.4l1.5-1.3l-90.9-101.4L2763.4,2899.3z M2565.5,2878.5l198.6,21.1l0.2-2l-198.5-21.1L2565.5,2878.5z M2171.6,2241.6
	l393.2,636.5l1.7-1l-393.2-636.5L2171.6,2241.6z M1866.1,2738.5l307.2-496.9l-1.7-1.1l-307.2,496.9L1866.1,2738.5z M1734.5,2933.4
	l131.5-194.9l-1.7-1.1l-131.5,194.9L1734.5,2933.4z M1636.2,2933.7l97.5,0.2v-2l-97.5-0.2V2933.7z M1522.1,3097.8l114.9-164.6
	l-1.6-1.1l-114.9,164.6L1522.1,3097.8z M1419.8,3020.6l100.9,77.4l1.2-1.6l-100.9-77.4L1419.8,3020.6z M1169,2739.1l250.6,281.5
	l1.5-1.3l-250.6-281.5L1169,2739.1z M985.5,2974.7l185-235.7l-1.6-1.2l-185,235.7L985.5,2974.7z M858.7,2970l126,5l0.1-2l-126-5
	L858.7,2970z M691.4,3238.9c40-46.2,82.1-113.6,114.1-169.4c16-27.9,29.5-52.9,39.1-71c4.8-9,8.5-16.3,11.1-21.3
	c1.3-2.5,2.3-4.5,2.9-5.8c0.3-0.7,0.6-1.2,0.8-1.5c0.1-0.2,0.1-0.3,0.2-0.4c0,0,0-0.1,0-0.1c0,0,0,0,0,0c0,0,0,0,0,0
	c0,0,0,0-0.9-0.4c-0.9-0.4-0.9-0.4-0.9-0.4c0,0,0,0,0,0c0,0,0,0,0,0c0,0,0,0.1,0,0.1c0,0.1-0.1,0.2-0.2,0.4
	c-0.2,0.3-0.4,0.8-0.8,1.5c-0.7,1.3-1.7,3.3-2.9,5.8c-2.6,5-6.3,12.3-11.1,21.3c-9.5,18-23,43-39,70.9c-32,55.8-74,123-113.9,169.1
	L691.4,3238.9z M689.8,3238.9c6.8,9.8,13.8,19.5,20.8,29.1l1.6-1.2c-7-9.6-14-19.3-20.8-29.1L689.8,3238.9z M874.3,3010
	l-163.7,256.9l1.7,1.1L876,3011.1L874.3,3010z M909.2,3018.3l-33.8-8.8l-0.5,1.9l33.8,8.8L909.2,3018.3z M796.3,3230.1l113.5-210.4
	l-1.8-0.9l-113.5,210.4L796.3,3230.1z M935.1,3025.7l-140.5,203.3l1.6,1.1l140.5-203.3L935.1,3025.7z M951.6,3029.3l-15.4-4
	l-0.5,1.9l15.4,4L951.6,3029.3z M837.8,3242.5l114.4-211.7l-1.8-1L836,3241.5L837.8,3242.5z M977.8,3036.8l-141.7,204.6l1.6,1.1
	L979.4,3038L977.8,3036.8z M985.9,3038.3l-7.1-1.8l-0.5,1.9l7.1,1.8L985.9,3038.3z M1161.9,2813l-177,225.7l1.6,1.2l177-225.7
	L1161.9,2813z M1214.7,2872.7l-51.2-59.8l-1.5,1.3l51.2,59.8L1214.7,2872.7z M1182.6,2939.8l32.2-66l-1.8-0.9l-32.2,66
	L1182.6,2939.8z M1204.3,2959.3l-21.9-20.7l-1.4,1.4l21.9,20.7L1204.3,2959.3z M1186.6,2997.2l17.9-36.8l-1.8-0.9l-17.9,36.8
	L1186.6,2997.2z M1185.8,2997.8L1185.8,2997.8l-0.2-2h0L1185.8,2997.8z M1109.1,3106.7l77.4-109.3l-1.6-1.2l-77.4,109.3
	L1109.1,3106.7z M1107.7,3106.9L1107.7,3106.9l1.1-1.7l0,0L1107.7,3106.9z M830.3,3413.2l278.6-306.4l-1.5-1.3l-278.6,306.4
	L830.3,3413.2z M828.8,3413.2c0.8,0.9,1.7,1.9,2.5,2.8l1.5-1.3c-0.8-0.9-1.7-1.8-2.5-2.8L828.8,3413.2z M1137,3152.8l-305.6,261.7
	l1.3,1.5l305.6-261.7L1137,3152.8z M1228.9,3160.4l-91.2-7.8l-0.2,2l91.2,7.8L1228.9,3160.4z M1214.9,3176.2l14.7-14.1l-1.4-1.4
	l-14.7,14L1214.9,3176.2z M1197.2,3202.4l17.8-26.4l-1.7-1.1l-17.8,26.4L1197.2,3202.4z M1033.9,3376
	c41.3-43.8,93.6-99.4,163.2-173.4l-1.5-1.4c-69.5,74-121.9,129.6-163.2,173.4L1033.9,3376z M1033.9,3376L1033.9,3376l-1.5-1.4v0
	L1033.9,3376z M1033.8,3376.1l0.1-0.1l-1.5-1.4l-0.1,0.1L1033.8,3376.1z M1033.8,3376.2L1033.8,3376.2l-1.4-1.4l-0.1,0.1
	L1033.8,3376.2z M1033.8,3376.2L1033.8,3376.2l-1.4-1.4l0,0L1033.8,3376.2z M915.8,3501.8c29.3-31.5,64.2-68.5,117.9-125.6l-1.5-1.4
	c-53.7,57.1-88.6,94.1-117.9,125.6L915.8,3501.8z M914.4,3501.8c10.1,9.8,20.4,19.5,30.7,29.1l1.4-1.5
	c-10.3-9.6-20.6-19.2-30.7-29.1L914.4,3501.8z M1036.4,3437.4c-38.7,39.1-67.1,67.8-91.2,92l1.4,1.4c24.2-24.2,52.5-52.9,91.2-92
	L1036.4,3437.4z M1004.5,3488.2l33.4-49.5l-1.7-1.1l-33.4,49.5L1004.5,3488.2z M1268.2,3274.1l-265.2,212.8l1.3,1.6l265.2-212.8
	L1268.2,3274.1z M1280,3297l-10.2-22.6l-1.8,0.8l10.2,22.6L1280,3297z M1001.8,3579.9l278-281.8l-1.4-1.4l-278,281.8L1001.8,3579.9z
	 M1000.4,3580c5.1,4.4,10.3,8.7,15.5,13.1l1.3-1.5c-5.2-4.3-10.3-8.7-15.5-13.1L1000.4,3580z M1306.9,3359.8l-291,231.7l1.2,1.6
	l291-231.7L1306.9,3359.8z M1312.8,3369.9l-4.4-9.7l-1.8,0.8l4.4,9.7L1312.8,3369.9z M1306.7,3380.6l6-9.8l-1.7-1.1l-6,9.7
	L1306.7,3380.6z M1081.8,3644.4l224.8-263.7l-1.5-1.3l-224.8,263.7L1081.8,3644.4z M1080.4,3644.5c3.2,2.4,6.4,4.9,9.6,7.3l1.2-1.6
	c-3.2-2.4-6.4-4.8-9.6-7.3L1080.4,3644.5z M878.8,3458.4l-3.6,2.7l1.2,1.6l3.6-2.7L878.8,3458.4z M859.4,3428.8l19.1,31l1.7-1.1
	l-19.1-31L859.4,3428.8z M852.2,3437.2l8.7-8.2l-1.4-1.5l-8.7,8.2L852.2,3437.2z M850.8,3437.1c8,8.6,16.1,17,24.3,25.4l1.4-1.4
	c-8.2-8.4-16.2-16.9-24.2-25.4L850.8,3437.1z M3277.3,3538.3l72.6,131.3l1.8-1l-72.6-131.3L3277.3,3538.3z M3180.1,3523.4l97.9,15.4
	l0.3-2l-97.9-15.4L3180.1,3523.4z M3333.7,3681.2L3181,3521.7l-1.4,1.4l152.7,159.4L3333.7,3681.2z M3333.6,3682.7
	c6-4.2,11.9-8.5,17.8-12.8l-1.2-1.6c-5.9,4.3-11.8,8.6-17.7,12.8L3333.6,3682.7z M3271.5,3723.6l-133.4-131.1l-1.4,1.4l133.4,131.1
	L3271.5,3723.6z M3137.3,3592.2l-35.3,4.4l0.2,2l35.3-4.4L3137.3,3592.2z M3101.2,3597.9l28.5,93.8l1.9-0.6l-28.5-93.8
	L3101.2,3597.9z M3130.3,3692.3l109.3,52.6l0.9-1.8l-109.3-52.6L3130.3,3692.3z M3240.6,3744.8c10.4-6.5,20.6-13,30.8-19.7l-1.1-1.7
	c-10.2,6.6-20.5,13.2-30.8,19.7L3240.6,3744.8z M3049.4,3678.7l99.6,118.8l1.5-1.3l-99.6-118.8L3049.4,3678.7z M2880.5,3641.4
	l169.4,37.6l0.4-1.9l-169.4-37.6L2880.5,3641.4z M3012.9,3774.7l-131.5-135l-1.4,1.4l131.5,134.9L3012.9,3774.7z M3120.4,3811.9
	l-107.9-37.5l-0.6,1.9l107.9,37.5L3120.4,3811.9z M3120.6,3813.7c9.9-5.2,19.8-10.5,29.6-15.9l-1-1.8c-9.8,5.4-19.7,10.7-29.6,15.9
	L3120.6,3813.7z M3049.6,3847.2l-98.1-33.6l-0.6,1.9l98.1,33.6L3049.6,3847.2z M2950.6,3815.4l63.1,49.8l1.2-1.6l-63.1-49.7
	L2950.6,3815.4z M3014.7,3865.2c11.7-5.3,23.4-10.6,35-16.1l-0.9-1.8c-11.6,5.5-23.2,10.9-35,16.1L3014.7,3865.2z M1284.9,3109.1
	l2.4-2.3l-1.4-1.4l-2.4,2.3L1284.9,3109.1z M1283.3,3108.7L1283.3,3108.7l1.9-0.7l0-0.1L1283.3,3108.7z M1284,3110l0.9-1l-1.5-1.4
	l-0.9,1L1284,3110z M1270.6,3122.8l13.3-12.8l-1.4-1.4l-13.3,12.8L1270.6,3122.8z M1256.1,3072.1l12.9,50.2l1.9-0.5l-12.9-50.2
	L1256.1,3072.1z M1392.2,3198.3l-134.5-127.1l-1.4,1.4l134.5,127.1L1392.2,3198.3z M1273.7,3027.7l117,171.9l1.6-1.1l-117-171.9
	L1273.7,3027.7z M1443.6,3185.6l-168.4-159.2l-1.4,1.4l168.4,159.2L1443.6,3185.6z M1291.6,2965.6l150.5,221.2l1.6-1.1l-150.4-221.2
	L1291.6,2965.6z M1392.6,3080.5l-99.4-116l-1.5,1.3l99.4,116L1392.6,3080.5z M1470.6,3170.3l-78-89.8l-1.5,1.3l78,89.9
	L1470.6,3170.3z M1392.9,3283l77.8-111.5l-1.6-1.1l-77.8,111.5L1392.9,3283z M1285.7,3106.6l105.5,176.3l1.7-1l-105.4-176.3
	L1285.7,3106.6z M1515.4,3195.5l-6.1,9.1l1.7,1.1l6.1-9.1L1515.4,3195.5z M1577.2,3139.9l-61.6,55.4l1.3,1.5l61.6-55.4
	L1577.2,3139.9z M1560.9,3128.9l16.3,12.5l1.2-1.6l-16.3-12.5L1560.9,3128.9z M1644.6,3001.8l-83.9,125.8l1.7,1.1l83.9-125.8
	L1644.6,3001.8z M1715.8,3021.6l-70.1-20.2l-0.5,1.9l70.1,20.2L1715.8,3021.6z M1637.9,3133.2l78.4-110l-1.6-1.2l-78.4,110
	L1637.9,3133.2z M1510.6,3206.1l127-72.6l-1-1.7l-127,72.6L1510.6,3206.1z M3108.5,3542l-117.1-80.9l-1.1,1.6l117,80.9L3108.5,3542z
	 M3125.1,3531.9l-17.7,10l1,1.7l17.7-10L3125.1,3531.9z M2856.7,3253.2l268.2,280.3l1.4-1.4l-268.2-280.3L2856.7,3253.2z
	 M3134.7,3442.6L2858,3251.7l-1.1,1.7l276.8,190.9L3134.7,3442.6z M3151.2,3432.6l-17.5,10l1,1.7l17.5-10L3151.2,3432.6z
	 M2771.7,3038.3l379.3,395.8l1.4-1.4l-379.3-395.8L2771.7,3038.3z M2739.8,3013.5l32,24.9l1.2-1.6l-32-24.9L2739.8,3013.5z
	 M2489.8,3520l251.5-506.8l-1.8-0.9L2488,3519.1L2489.8,3520z M2552.5,3431.8l-64.5,87.1l1.6,1.2l64.5-87.1L2552.5,3431.8z
	 M2553.9,3433.5l0.3-0.6l-1.8-1l-0.3,0.6L2553.9,3433.5z M2622.5,3488.2l-68.9-56l-1.3,1.6l68.9,56L2622.5,3488.2z M3068.9,3650.5
	l-446.7-162.4l-0.7,1.9l446.7,162.4L3068.9,3650.5z M2989.9,3462.3l77.8,189.6l1.9-0.8l-77.8-189.6L2989.9,3462.3z M1975.8,3309.6
	l-405.2,259.3l1.1,1.7l405.2-259.3L1975.8,3309.6z M2017,3333.1l-40.1-23.6l-1,1.7l40.1,23.6L2017,3333.1z M1934.6,3454.9
	l82.7-120.4l-1.7-1.1l-82.7,120.4L1934.6,3454.9z M1977.9,3473.3l-43.7-19.8l-0.8,1.8l43.7,19.8L1977.9,3473.3z M1893,3599
	l85.3-124.3l-1.7-1.1l-85.3,124.3L1893,3599z M2256.7,3762.7l-364.1-165.1l-0.8,1.8l364.1,165.1L2256.7,3762.7z M2036.1,3501.8
	l219.4,262.4l1.5-1.3l-219.4-262.4L2036.1,3501.8z M2298.4,3618.7l-261.1-118.5l-0.8,1.8l261.1,118.5L2298.4,3618.7z M2099.6,3383.9
	l197.5,236.4l1.5-1.3l-197.5-236.4L2099.6,3383.9z M2285.1,3490.6l-184.2-108.2l-1,1.7l184.2,108.2L2285.1,3490.6z M1998.7,3170.1
	l285.2,322l1.5-1.3l-285.2-322L1998.7,3170.1z M1571.9,3570.5l428.2-400.3l-1.4-1.5L1570.5,3569L1571.9,3570.5z M2997.3,3056
	l-24.7,37.3l1.7,1.1l24.7-37.3L2997.3,3056z M3202,3347L2999,3056l-1.6,1.1l203,291.1L3202,3347z M2972.7,3094.5l227.7,253.8
	l1.5-1.3l-227.7-253.8L2972.7,3094.5z M2934.1,3465.9l-127.7-80.8l-1.1,1.7l127.7,80.8L2934.1,3465.9z M2998.9,3573.3l-64.5-107
	l-1.7,1l64.5,107L2998.9,3573.3z M2836.4,3504.2l161.3,70.5l0.8-1.8l-161.3-70.5L2836.4,3504.2z M2804.9,3386.2l30.9,117.4l1.9-0.5
	l-30.9-117.4L2804.9,3386.2z M2159.6,2954.9l18.2-70.6l-1.9-0.5l-18.2,70.6L2159.6,2954.9z M2294.9,3089.4l-135.6-135.5l-1.4,1.4
	l135.6,135.5L2294.9,3089.4z M2176,2884.5l117.4,206.2l1.7-1l-117.4-206.1L2176,2884.5z M1906.3,2893.7l34-93.6l-1.9-0.7l-34,93.6
	L1906.3,2893.7z M1953.8,2860.4l-49,32.1l1.1,1.7l49-32.1L1953.8,2860.4z M2028.4,2689.8l-74.9,171.1l1.8,0.8l74.9-171.1
	L2028.4,2689.8z M1940.1,2800.4l90-109.5l-1.5-1.3l-90,109.5L1940.1,2800.4z M1724.8,3389.6L1495.7,3608l1.4,1.4l229.2-218.4
	L1724.8,3389.6z M1870,3250.2l-145.1,139.4l1.4,1.4l145.1-139.3L1870,3250.2z M1701.9,3331.4l169.2-79.6l-0.9-1.8l-169.2,79.6
	L1701.9,3331.4z M1497.2,3609.3l205.1-278.2l-1.6-1.2l-205.1,278.2L1497.2,3609.3z"/>
  <rect x="1395.9" y="849.9" class="st5" width="1627.2" height="571.8"/>
  <text transform="matrix(1 0 0 1 1395.9052 1362.778)" class="st6 st7">KWD</text>
  <rect x="605" y="1651.7" class="st5" width="3209" height="479.5"/>
  <text transform="matrix(1 0 0 1 604.9941 2002.7371)">
    <tspan x="0" y="0" class="st8 st9">WOODWORKS</tspan>
    <tspan x="1567.8" y="0" class="st8 st9">-</tspan>
  </text>
</svg>
